<svg width="217" height="33" viewBox="0 0 217 33" fill="none" xmlns="http://www.w3.org/2000/svg">
<path d="M2.64 32.36C2.05333 32.36 1.56 32.16 1.16 31.76C0.786667 31.3867 0.6 30.9067 0.6 30.32V12.08C0.626667 9.97333 1.12 8.08 2.08 6.4C3.04 4.72 4.34667 3.4 6 2.44C7.65333 1.45333 9.52 0.96 11.6 0.96C13.7067 0.96 15.5867 1.45333 17.24 2.44C18.8933 3.4 20.2 4.72 21.16 6.4C22.1467 8.08 22.64 9.97333 22.64 12.08C22.64 14.1867 22.1867 16.08 21.28 17.76C20.4 19.4133 19.1867 20.7333 17.64 21.72C16.0933 22.68 14.3467 23.16 12.4 23.16C10.8267 23.16 9.37333 22.84 8.04 22.2C6.73333 21.5333 5.61333 20.64 4.68 19.52V30.32C4.68 30.9067 4.49333 31.3867 4.12 31.76C3.74667 32.16 3.25333 32.36 2.64 32.36ZM11.6 19.56C12.96 19.56 14.1733 19.24 15.24 18.6C16.3067 17.9333 17.1467 17.04 17.76 15.92C18.4 14.7733 18.72 13.4933 18.72 12.08C18.72 10.64 18.4 9.36 17.76 8.24C17.1467 7.09333 16.3067 6.2 15.24 5.56C14.1733 4.89333 12.96 4.56 11.6 4.56C10.2667 4.56 9.05333 4.89333 7.96 5.56C6.89333 6.2 6.05333 7.09333 5.44 8.24C4.82667 9.36 4.52 10.64 4.52 12.08C4.52 13.4933 4.82667 14.7733 5.44 15.92C6.05333 17.04 6.89333 17.9333 7.96 18.6C9.05333 19.24 10.2667 19.56 11.6 19.56ZM31.4341 32.6C31.1674 32.6 30.8474 32.52 30.4741 32.36C29.3007 31.8267 28.9807 30.9867 29.5141 29.84L41.7141 2.28C42.2474 1.16 43.0874 0.839999 44.2341 1.32C45.4341 1.82667 45.7674 2.66667 45.2341 3.84L32.9941 31.36C32.6741 32.1867 32.1541 32.6 31.4341 32.6ZM36.1541 22.12C35.6474 22.3333 35.1674 22.36 34.7141 22.2C34.2874 22.0133 33.9407 21.6667 33.6741 21.16L24.5141 3.76C24.2474 3.25333 24.2074 2.77333 24.3941 2.32C24.6074 1.84 24.9674 1.49333 25.4741 1.28C25.9807 1.06667 26.4607 1.05333 26.9141 1.24C27.3674 1.4 27.7141 1.73333 27.9541 2.24L36.7141 19.64C36.9807 20.1467 37.0741 20.64 36.9941 21.12C36.9407 21.5733 36.6607 21.9067 36.1541 22.12Z" fill="white"/>
<path d="M58.5753 23.16C56.362 23.16 54.3886 22.6933 52.6553 21.76C50.9486 20.8 49.602 19.4933 48.6153 17.84C47.6553 16.16 47.1753 14.24 47.1753 12.08C47.1753 9.89333 47.6286 7.97333 48.5353 6.32C49.4686 4.64 50.7486 3.33333 52.3753 2.4C54.002 1.44 55.8686 0.96 57.9753 0.96C60.0553 0.96 61.842 1.42667 63.3353 2.36C64.8286 3.26667 65.962 4.53333 66.7353 6.16C67.5353 7.76 67.9353 9.61333 67.9353 11.72C67.9353 12.2267 67.762 12.6533 67.4153 13C67.0686 13.32 66.6286 13.48 66.0953 13.48H49.9753V10.28H65.9753L64.3353 11.4C64.3086 10.0667 64.042 8.88 63.5353 7.84C63.0286 6.77333 62.3086 5.93333 61.3753 5.32C60.442 4.70667 59.3086 4.4 57.9753 4.4C56.4553 4.4 55.1486 4.73333 54.0553 5.4C52.9886 6.06667 52.1753 6.98667 51.6153 8.16C51.0553 9.30667 50.7753 10.6133 50.7753 12.08C50.7753 13.5467 51.1086 14.8533 51.7753 16C52.442 17.1467 53.362 18.0533 54.5353 18.72C55.7086 19.3867 57.0553 19.72 58.5753 19.72C59.402 19.72 60.242 19.5733 61.0953 19.28C61.9753 18.96 62.682 18.6 63.2153 18.2C63.6153 17.9067 64.042 17.76 64.4953 17.76C64.9753 17.7333 65.3886 17.8667 65.7353 18.16C66.1886 18.56 66.4286 19 66.4553 19.48C66.482 19.96 66.2686 20.3733 65.8153 20.72C64.9086 21.44 63.7753 22.0267 62.4153 22.48C61.082 22.9333 59.802 23.16 58.5753 23.16ZM81.4778 23.16C79.5311 23.16 77.7845 22.68 76.2378 21.72C74.6911 20.7333 73.4645 19.4133 72.5578 17.76C71.6778 16.08 71.2378 14.1867 71.2378 12.08C71.2378 9.97333 71.7178 8.08 72.6778 6.4C73.6645 4.72 74.9845 3.4 76.6378 2.44C78.3178 1.45333 80.1978 0.96 82.2778 0.96C84.3578 0.96 86.2245 1.45333 87.8778 2.44C89.5311 3.4 90.8378 4.72 91.7978 6.4C92.7845 8.08 93.2778 9.97333 93.2778 12.08H91.7178C91.7178 14.1867 91.2645 16.08 90.3578 17.76C89.4778 19.4133 88.2645 20.7333 86.7178 21.72C85.1711 22.68 83.4245 23.16 81.4778 23.16ZM82.2778 19.56C83.6378 19.56 84.8511 19.24 85.9178 18.6C86.9845 17.9333 87.8245 17.04 88.4378 15.92C89.0511 14.7733 89.3578 13.4933 89.3578 12.08C89.3578 10.64 89.0511 9.36 88.4378 8.24C87.8245 7.09333 86.9845 6.2 85.9178 5.56C84.8511 4.89333 83.6378 4.56 82.2778 4.56C80.9445 4.56 79.7311 4.89333 78.6378 5.56C77.5711 6.2 76.7178 7.09333 76.0778 8.24C75.4645 9.36 75.1578 10.64 75.1578 12.08C75.1578 13.4933 75.4645 14.7733 76.0778 15.92C76.7178 17.04 77.5711 17.9333 78.6378 18.6C79.7311 19.24 80.9445 19.56 82.2778 19.56ZM91.2378 23.04C90.6511 23.04 90.1578 22.8533 89.7578 22.48C89.3845 22.08 89.1978 21.5867 89.1978 21V14.88L89.9578 10.64L93.2778 12.08V21C93.2778 21.5867 93.0778 22.08 92.6778 22.48C92.3045 22.8533 91.8245 23.04 91.2378 23.04ZM107.31 23.16C105.443 23.16 103.71 22.88 102.11 22.32C100.537 21.7333 99.31 21 98.43 20.12C98.03 19.6933 97.8567 19.2133 97.91 18.68C97.99 18.12 98.2567 17.6667 98.71 17.32C99.2433 16.8933 99.7633 16.72 100.27 16.8C100.803 16.8533 101.257 17.08 101.63 17.48C102.083 17.9867 102.803 18.4667 103.79 18.92C104.803 19.3467 105.923 19.56 107.15 19.56C108.697 19.56 109.87 19.3067 110.67 18.8C111.497 18.2933 111.923 17.64 111.95 16.84C111.977 16.04 111.59 15.3467 110.79 14.76C110.017 14.1733 108.59 13.6933 106.51 13.32C103.817 12.7867 101.857 11.9867 100.63 10.92C99.43 9.85333 98.83 8.54667 98.83 7C98.83 5.64 99.23 4.52 100.03 3.64C100.83 2.73333 101.857 2.06667 103.11 1.64C104.363 1.18667 105.67 0.96 107.03 0.96C108.79 0.96 110.35 1.24 111.71 1.8C113.07 2.36 114.15 3.13333 114.95 4.12C115.323 4.54667 115.497 5 115.47 5.48C115.443 5.93333 115.217 6.32 114.79 6.64C114.363 6.93333 113.857 7.02667 113.27 6.92C112.683 6.81333 112.19 6.57333 111.79 6.2C111.123 5.56 110.403 5.12 109.63 4.88C108.857 4.64 107.963 4.52 106.95 4.52C105.777 4.52 104.777 4.72 103.95 5.12C103.15 5.52 102.75 6.10667 102.75 6.88C102.75 7.36 102.87 7.8 103.11 8.2C103.377 8.57333 103.883 8.92 104.63 9.24C105.377 9.53333 106.47 9.82667 107.91 10.12C109.91 10.52 111.483 11.0267 112.63 11.64C113.803 12.2533 114.643 12.9733 115.15 13.8C115.657 14.6 115.91 15.5333 115.91 16.6C115.91 17.8267 115.577 18.9333 114.91 19.92C114.27 20.9067 113.31 21.6933 112.03 22.28C110.777 22.8667 109.203 23.16 107.31 23.16ZM124.989 32.6C124.722 32.6 124.402 32.52 124.029 32.36C122.855 31.8267 122.535 30.9867 123.069 29.84L135.269 2.28C135.802 1.16 136.642 0.839999 137.789 1.32C138.989 1.82667 139.322 2.66667 138.789 3.84L126.549 31.36C126.229 32.1867 125.709 32.6 124.989 32.6ZM129.709 22.12C129.202 22.3333 128.722 22.36 128.269 22.2C127.842 22.0133 127.495 21.6667 127.229 21.16L118.069 3.76C117.802 3.25333 117.762 2.77333 117.949 2.32C118.162 1.84 118.522 1.49333 119.029 1.28C119.535 1.06667 120.015 1.05333 120.469 1.24C120.922 1.4 121.269 1.73333 121.509 2.24L130.269 19.64C130.535 20.1467 130.629 20.64 130.549 21.12C130.495 21.5733 130.215 21.9067 129.709 22.12ZM144.671 32.36C144.085 32.36 143.591 32.16 143.191 31.76C142.818 31.3867 142.631 30.9067 142.631 30.32V12.08C142.658 9.97333 143.151 8.08 144.111 6.4C145.071 4.72 146.378 3.4 148.031 2.44C149.685 1.45333 151.551 0.96 153.631 0.96C155.738 0.96 157.618 1.45333 159.271 2.44C160.925 3.4 162.231 4.72 163.191 6.4C164.178 8.08 164.671 9.97333 164.671 12.08C164.671 14.1867 164.218 16.08 163.311 17.76C162.431 19.4133 161.218 20.7333 159.671 21.72C158.125 22.68 156.378 23.16 154.431 23.16C152.858 23.16 151.405 22.84 150.071 22.2C148.765 21.5333 147.645 20.64 146.711 19.52V30.32C146.711 30.9067 146.525 31.3867 146.151 31.76C145.778 32.16 145.285 32.36 144.671 32.36ZM153.631 19.56C154.991 19.56 156.205 19.24 157.271 18.6C158.338 17.9333 159.178 17.04 159.791 15.92C160.431 14.7733 160.751 13.4933 160.751 12.08C160.751 10.64 160.431 9.36 159.791 8.24C159.178 7.09333 158.338 6.2 157.271 5.56C156.205 4.89333 154.991 4.56 153.631 4.56C152.298 4.56 151.085 4.89333 149.991 5.56C148.925 6.2 148.085 7.09333 147.471 8.24C146.858 9.36 146.551 10.64 146.551 12.08C146.551 13.4933 146.858 14.7733 147.471 15.92C148.085 17.04 148.925 17.9333 149.991 18.6C151.085 19.24 152.298 19.56 153.631 19.56ZM179.876 23.16C177.93 23.16 176.183 22.68 174.636 21.72C173.09 20.7333 171.863 19.4133 170.956 17.76C170.076 16.08 169.636 14.1867 169.636 12.08C169.636 9.97333 170.116 8.08 171.076 6.4C172.063 4.72 173.383 3.4 175.036 2.44C176.716 1.45333 178.596 0.96 180.676 0.96C182.756 0.96 184.623 1.45333 186.276 2.44C187.93 3.4 189.236 4.72 190.196 6.4C191.183 8.08 191.676 9.97333 191.676 12.08H190.116C190.116 14.1867 189.663 16.08 188.756 17.76C187.876 19.4133 186.663 20.7333 185.116 21.72C183.57 22.68 181.823 23.16 179.876 23.16ZM180.676 19.56C182.036 19.56 183.25 19.24 184.316 18.6C185.383 17.9333 186.223 17.04 186.836 15.92C187.45 14.7733 187.756 13.4933 187.756 12.08C187.756 10.64 187.45 9.36 186.836 8.24C186.223 7.09333 185.383 6.2 184.316 5.56C183.25 4.89333 182.036 4.56 180.676 4.56C179.343 4.56 178.13 4.89333 177.036 5.56C175.97 6.2 175.116 7.09333 174.476 8.24C173.863 9.36 173.556 10.64 173.556 12.08C173.556 13.4933 173.863 14.7733 174.476 15.92C175.116 17.04 175.97 17.9333 177.036 18.6C178.13 19.24 179.343 19.56 180.676 19.56ZM189.636 23.04C189.05 23.04 188.556 22.8533 188.156 22.48C187.783 22.08 187.596 21.5867 187.596 21V14.88L188.356 10.64L191.676 12.08V21C191.676 21.5867 191.476 22.08 191.076 22.48C190.703 22.8533 190.223 23.04 189.636 23.04ZM201.668 32.6C201.402 32.6 201.082 32.52 200.708 32.36C199.535 31.8267 199.215 30.9867 199.748 29.84L211.948 2.28C212.482 1.16 213.322 0.839999 214.468 1.32C215.668 1.82667 216.002 2.66667 215.468 3.84L203.228 31.36C202.908 32.1867 202.388 32.6 201.668 32.6ZM206.388 22.12C205.882 22.3333 205.402 22.36 204.948 22.2C204.522 22.0133 204.175 21.6667 203.908 21.16L194.748 3.76C194.482 3.25333 194.442 2.77333 194.628 2.32C194.842 1.84 195.202 1.49333 195.708 1.28C196.215 1.06667 196.695 1.05333 197.148 1.24C197.602 1.4 197.948 1.73333 198.188 2.24L206.948 19.64C207.215 20.1467 207.308 20.64 207.228 21.12C207.175 21.5733 206.895 21.9067 206.388 22.12Z" fill="url(#paint0_linear_25_96)"/>
<defs>
<linearGradient id="paint0_linear_25_96" x1="-3" y1="10.5" x2="216" y2="10.5" gradientUnits="userSpaceOnUse">
<stop stop-color="#0094FF"/>
<stop offset="1" stop-color="#1FBF75"/>
</linearGradient>
</defs>
</svg>
